# Blender 3.6.4
# www.blender.org
mtllib triangle.mtl
o Cube
v -1.000000 1.471495 0.637127
v -0.020467 1.415870 -1.601093
v -1.000000 -0.336871 -0.217164
v 1.000000 1.471495 0.637127
v 1.000000 -0.336871 -0.217164
vn -0.8981 0.1879 -0.3977
vn -0.0000 -0.6197 -0.7848
vn 0.8908 0.1941 -0.4109
vn -0.0000 0.9997 -0.0248
vn -0.0000 -0.4271 0.9042
vt 0.375000 0.000000
vt 0.625000 0.250000
vt 0.375000 0.250000
vt 0.625000 0.500000
vt 0.375000 0.500000
vt 0.625000 0.750000
vt 0.375000 0.750000
vt 0.625000 1.000000
vt 0.375000 1.000000
vt 0.125000 0.500000
vt 0.125000 0.750000
s 0
usemtl Material.001
f 1/1/1 2/2/1 3/3/1
f 3/3/2 2/4/2 5/5/2
f 5/5/3 2/6/3 4/7/3
f 4/7/4 2/8/4 1/9/4
f 3/10/5 5/5/5 4/7/5 1/11/5
